<svg xmlns="http://www.w3.org/2000/svg" width="1400" height="900" viewBox="0 0 1400 900"><defs><marker id="arrow" markerWidth="10" markerHeight="10" refX="8" refY="3" orient="auto"><path d="M0,0 L0,6 L9,3 z" fill="#577066"/></marker></defs><rect width="1400" height="900" fill="#f6f4ee"/><text x="70" y="78" font-family="Arial, Helvetica, sans-serif" font-size="34" font-weight="800" fill="#18201d">Supabase Touchpoint Map</text><text x="70" y="108" font-family="Arial, Helvetica, sans-serif" font-size="15" fill="#59645f">Static current-system map, no production Supabase touched</text><g font-family="Arial, Helvetica, sans-serif"><rect x="90" y="170" width="260" height="100" rx="10" fill="#dcefe9" stroke="#6aa995"/><text x="220" y="215" text-anchor="middle" font-size="18" font-weight="700" fill="#17201d">Browser Public</text><text x="220" y="238" text-anchor="middle" font-size="12" fill="#41504a">NEXT_PUBLIC_* only</text><rect x="520" y="170" width="260" height="100" rx="10" fill="#e6edf6" stroke="#7794bd"/><text x="650" y="215" text-anchor="middle" font-size="18" font-weight="700" fill="#17201d">Request Token</text><text x="650" y="238" text-anchor="middle" font-size="12" fill="#41504a">per-request auth</text><rect x="950" y="170" width="300" height="100" rx="10" fill="#f2ded9" stroke="#bc7667"/><text x="1100" y="215" text-anchor="middle" font-size="18" font-weight="700" fill="#17201d">Admin Boundary</text><text x="1100" y="238" text-anchor="middle" font-size="12" fill="#41504a">service-role server only</text><line x1="220" y1="270" x2="220" y2="390" stroke="#577066" stroke-width="2" marker-end="url(#arrow)"/><line x1="650" y1="270" x2="650" y2="390" stroke="#577066" stroke-width="2" marker-end="url(#arrow)"/><line x1="1100" y1="270" x2="1100" y2="390" stroke="#577066" stroke-width="2" marker-end="url(#arrow)"/><rect x="90" y="390" width="260" height="100" rx="10" fill="#fff1c7" stroke="#c7a13a"/><text x="220" y="435" text-anchor="middle" font-size="18" font-weight="700" fill="#17201d">Tables</text><text x="220" y="458" text-anchor="middle" font-size="12" fill="#41504a">24 signals</text><rect x="520" y="390" width="260" height="100" rx="10" fill="#e8e0f0" stroke="#987db8"/><text x="650" y="435" text-anchor="middle" font-size="18" font-weight="700" fill="#17201d">RPC / Functions</text><text x="650" y="458" text-anchor="middle" font-size="12" fill="#41504a">6 signals</text><rect x="950" y="390" width="300" height="100" rx="10" fill="#e5ead7" stroke="#8a9b52"/><text x="1100" y="435" text-anchor="middle" font-size="18" font-weight="700" fill="#17201d">Storage</text><text x="1100" y="458" text-anchor="middle" font-size="12" fill="#41504a">nexus-generated-assets</text></g></svg>